<svg width="866" height="683" viewBox="0 0 866 683" fill="none" xmlns="http://www.w3.org/2000/svg">
<path d="M451.54 267.51H59.38V24.87H451.54V267.51ZM61.38 265.51H449.54V26.87H61.38V265.51Z" fill="#2FF093"/>
<path d="M537.75 603.18H592.64C596.883 603.18 600.953 604.866 603.954 607.866C606.954 610.867 608.64 614.937 608.64 619.18V632.11H521.77V619.11C521.789 614.882 523.48 610.833 526.474 607.849C529.468 604.864 533.522 603.185 537.75 603.18Z" fill="#0F4B62"/>
<path opacity="0.2" d="M537.75 603.18H592.64C596.883 603.18 600.953 604.866 603.954 607.866C606.954 610.867 608.64 614.937 608.64 619.18V632.11H521.77V619.11C521.789 614.882 523.48 610.833 526.474 607.849C529.468 604.864 533.522 603.185 537.75 603.18Z" fill="black"/>
<path d="M822.74 363.65H590.63V22.94H822.74V363.65ZM596.87 357.41H816.5V29.19H596.87V357.41Z" fill="#EBEBEB"/>
<path d="M709.72 30.83H703.48V360.54H709.72V30.83Z" fill="#EBEBEB"/>
<path d="M828.4 35.57H584.96V44.26H828.4V35.57Z" fill="#EBEBEB"/>
<path d="M828.4 45.34H584.96V54.03H828.4V45.34Z" fill="#EBEBEB"/>
<path d="M828.4 55.13H584.96V63.82H828.4V55.13Z" fill="#EBEBEB"/>
<path d="M828.4 64.92H584.96V73.61H828.4V64.92Z" fill="#EBEBEB"/>
<path d="M828.4 74.69H584.96V83.38H828.4V74.69Z" fill="#EBEBEB"/>
<path d="M828.4 84.48H584.96V93.17H828.4V84.48Z" fill="#EBEBEB"/>
<path d="M828.4 94.27H584.96V102.96H828.4V94.27Z" fill="#EBEBEB"/>
<path d="M828.4 104.04H584.96V112.73H828.4V104.04Z" fill="#EBEBEB"/>
<path d="M828.4 113.83H584.96V122.52H828.4V113.83Z" fill="#EBEBEB"/>
<path d="M809.86 33.81H808.3V234.23H809.86V33.81Z" fill="#263238"/>
<path d="M811.84 241.49H806.3L807.71 233.53H810.47L811.84 241.49Z" fill="#263238"/>
<path d="M815.48 33.81H813.92V308.13H815.48V33.81Z" fill="#263238"/>
<path d="M817.48 313.98H811.94L813.33 306.02H816.09L817.48 313.98Z" fill="#263238"/>
<path d="M838.09 21.72H575.27V39.91H838.09V21.72Z" fill="#DBDBDB"/>
<path d="M341.41 522.84C340.625 522.766 339.849 522.622 339.09 522.41C336.902 521.819 334.829 520.862 332.96 519.58C329.999 517.541 327.488 514.917 325.58 511.87C323.09 507.829 321.269 503.412 320.19 498.79C318.709 493.228 318.132 487.465 318.48 481.72C318.845 475.07 321.1 468.663 324.98 463.25C327.089 460.332 329.72 457.83 332.74 455.87C334.316 454.875 335.992 454.047 337.74 453.4C339.526 452.771 341.373 452.329 343.25 452.08C347.03 451.56 350.89 451.63 354.75 451.41C358.638 451.31 362.465 450.422 366 448.8C367.746 447.991 369.284 446.794 370.497 445.3C371.71 443.806 372.566 442.055 373 440.18C373.356 438.643 373.405 437.052 373.145 435.496C372.885 433.941 372.321 432.452 371.485 431.114C370.649 429.777 369.558 428.617 368.273 427.702C366.989 426.787 365.537 426.134 364 425.78C363.017 425.549 362.009 425.444 361 425.47C359.268 425.558 357.604 426.172 356.23 427.23C355.574 427.734 355.049 428.389 354.701 429.139C354.353 429.89 354.191 430.714 354.23 431.54C354.402 433.151 355.133 434.65 356.298 435.775C357.462 436.901 358.985 437.583 360.6 437.7C362.156 437.729 363.698 437.413 365.116 436.773C366.534 436.133 367.793 435.186 368.8 434C370.68 431.741 372.03 429.089 372.75 426.24C373.469 423.611 374.021 420.939 374.4 418.24C375.423 410.042 375.677 401.766 375.16 393.52C375.01 390.63 374.9 388.37 374.82 386.79C374.82 386.04 374.75 385.46 374.73 385.03C374.73 384.83 374.73 384.63 374.73 384.43C374.771 384.628 374.798 384.828 374.81 385.03C374.81 385.46 374.9 386.03 374.97 386.78C375.09 388.31 375.27 390.58 375.45 393.51C376.089 401.777 375.911 410.088 374.92 418.32C374.549 421.047 374.012 423.749 373.31 426.41C372.573 429.345 371.19 432.079 369.26 434.41C368.194 435.663 366.864 436.663 365.365 437.34C363.865 438.016 362.234 438.351 360.59 438.32C358.813 438.197 357.135 437.451 355.855 436.212C354.574 434.974 353.772 433.322 353.59 431.55C353.547 430.615 353.727 429.684 354.117 428.833C354.507 427.983 355.094 427.238 355.83 426.66C357.313 425.505 359.113 424.832 360.99 424.73C364.373 424.636 367.654 425.889 370.113 428.215C372.572 430.54 374.006 433.747 374.1 437.13C374.179 440.247 373.136 443.288 371.16 445.7C369.842 447.261 368.215 448.531 366.38 449.43C362.74 451.114 358.79 452.026 354.78 452.11C350.88 452.34 347.04 452.26 343.34 452.78C339.703 453.208 336.211 454.46 333.13 456.44C330.181 458.348 327.609 460.782 325.54 463.62C321.72 468.927 319.49 475.212 319.11 481.74C318.73 487.419 319.27 493.123 320.71 498.63C321.758 503.212 323.523 507.599 325.94 511.63C327.79 514.658 330.24 517.275 333.14 519.32C334.971 520.61 336.997 521.6 339.14 522.25C339.88 522.47 340.45 522.6 340.84 522.68C341.034 522.719 341.224 522.773 341.41 522.84Z" fill="#BCBEC0"/>
<path d="M450.54 25.87H60.38V42.22H450.54V25.87Z" fill="#2FF093"/>
<path d="M160.92 54.27H75.14V109.49H160.92V54.27Z" fill="#2FF093"/>
<path d="M160.92 116.44H75.14V253.28H160.92V116.44Z" fill="#2FF093"/>
<path d="M98.61 63.34H87.61C86.1851 63.34 85.03 64.4951 85.03 65.92V65.93C85.03 67.3549 86.1851 68.51 87.61 68.51H98.61C100.035 68.51 101.19 67.3549 101.19 65.93V65.92C101.19 64.4951 100.035 63.34 98.61 63.34Z" fill="white"/>
<path d="M100.72 71.03H89.72C88.2951 71.03 87.14 72.1851 87.14 73.61V73.62C87.14 75.0449 88.2951 76.2 89.72 76.2H100.72C102.145 76.2 103.3 75.0449 103.3 73.62V73.61C103.3 72.1851 102.145 71.03 100.72 71.03Z" fill="white"/>
<path d="M95.03 79.3H84.03C82.6051 79.3 81.45 80.4551 81.45 81.88V81.89C81.45 83.3149 82.6051 84.47 84.03 84.47H95.03C96.4549 84.47 97.61 83.3149 97.61 81.89V81.88C97.61 80.4551 96.4549 79.3 95.03 79.3Z" fill="white"/>
<path d="M98.61 87.56H87.61C86.1851 87.56 85.03 88.7151 85.03 90.14V90.15C85.03 91.5749 86.1851 92.73 87.61 92.73H98.61C100.035 92.73 101.19 91.5749 101.19 90.15V90.14C101.19 88.7151 100.035 87.56 98.61 87.56Z" fill="white"/>
<path d="M94.18 95.82H83.18C81.7551 95.82 80.6 96.9751 80.6 98.4V98.41C80.6 99.8349 81.7551 100.99 83.18 100.99H94.18C95.6049 100.99 96.76 99.8349 96.76 98.41V98.4C96.76 96.9751 95.6049 95.82 94.18 95.82Z" fill="white"/>
<path d="M148.66 63.34H107.77C106.345 63.34 105.19 64.4951 105.19 65.92V65.93C105.19 67.3549 106.345 68.51 107.77 68.51H148.66C150.085 68.51 151.24 67.3549 151.24 65.93V65.92C151.24 64.4951 150.085 63.34 148.66 63.34Z" fill="#2FF093"/>
<path d="M148.66 71.03H111.99C110.565 71.03 109.41 72.1851 109.41 73.61V73.62C109.41 75.0449 110.565 76.2 111.99 76.2H148.66C150.085 76.2 151.24 75.0449 151.24 73.62V73.61C151.24 72.1851 150.085 71.03 148.66 71.03Z" fill="#2FF093"/>
<path d="M148.66 79.3H105.06C103.635 79.3 102.48 80.4551 102.48 81.88V81.89C102.48 83.3149 103.635 84.47 105.06 84.47H148.66C150.085 84.47 151.24 83.3149 151.24 81.89V81.88C151.24 80.4551 150.085 79.3 148.66 79.3Z" fill="#2FF093"/>
<path d="M148.66 87.56H111.99C110.565 87.56 109.41 88.7151 109.41 90.14V90.15C109.41 91.5749 110.565 92.73 111.99 92.73H148.66C150.085 92.73 151.24 91.5749 151.24 90.15V90.14C151.24 88.7151 150.085 87.56 148.66 87.56Z" fill="#2FF093"/>
<path d="M148.66 95.82H105.06C103.635 95.82 102.48 96.9751 102.48 98.4V98.41C102.48 99.8349 103.635 100.99 105.06 100.99H148.66C150.085 100.99 151.24 99.8349 151.24 98.41V98.4C151.24 96.9751 150.085 95.82 148.66 95.82Z" fill="#2FF093"/>
<g opacity="0.2">
<path d="M148.66 63.34H107.77C106.345 63.34 105.19 64.4951 105.19 65.92V65.93C105.19 67.3549 106.345 68.51 107.77 68.51H148.66C150.085 68.51 151.24 67.3549 151.24 65.93V65.92C151.24 64.4951 150.085 63.34 148.66 63.34Z" fill="white"/>
<path d="M148.66 71.03H111.99C110.565 71.03 109.41 72.1851 109.41 73.61V73.62C109.41 75.0449 110.565 76.2 111.99 76.2H148.66C150.085 76.2 151.24 75.0449 151.24 73.62V73.61C151.24 72.1851 150.085 71.03 148.66 71.03Z" fill="white"/>
<path d="M148.66 79.3H105.06C103.635 79.3 102.48 80.4551 102.48 81.88V81.89C102.48 83.3149 103.635 84.47 105.06 84.47H148.66C150.085 84.47 151.24 83.3149 151.24 81.89V81.88C151.24 80.4551 150.085 79.3 148.66 79.3Z" fill="white"/>
<path d="M148.66 87.56H111.99C110.565 87.56 109.41 88.7151 109.41 90.14V90.15C109.41 91.5749 110.565 92.73 111.99 92.73H148.66C150.085 92.73 151.24 91.5749 151.24 90.15V90.14C151.24 88.7151 150.085 87.56 148.66 87.56Z" fill="white"/>
<path d="M148.66 95.82H105.06C103.635 95.82 102.48 96.9751 102.48 98.4V98.41C102.48 99.8349 103.635 100.99 105.06 100.99H148.66C150.085 100.99 151.24 99.8349 151.24 98.41V98.4C151.24 96.9751 150.085 95.82 148.66 95.82Z" fill="white"/>
</g>
<path d="M95.45 125.21H83.18C81.7551 125.21 80.6 126.365 80.6 127.79V127.8C80.6 129.225 81.7551 130.38 83.18 130.38H95.45C96.8749 130.38 98.03 129.225 98.03 127.8V127.79C98.03 126.365 96.8749 125.21 95.45 125.21Z" fill="white"/>
<path d="M99.1 133.19H88.1C86.6751 133.19 85.52 134.345 85.52 135.77V135.78C85.52 137.205 86.6751 138.36 88.1 138.36H99.1C100.525 138.36 101.68 137.205 101.68 135.78V135.77C101.68 134.345 100.525 133.19 99.1 133.19Z" fill="white"/>
<path d="M94.82 141.17H83.82C82.3951 141.17 81.24 142.325 81.24 143.75V143.76C81.24 145.185 82.3951 146.34 83.82 146.34H94.82C96.2449 146.34 97.4 145.185 97.4 143.76V143.75C97.4 142.325 96.2449 141.17 94.82 141.17Z" fill="white"/>
<path d="M95.45 149.43H84.45C83.0251 149.43 81.87 150.585 81.87 152.01V152.02C81.87 153.445 83.0251 154.6 84.45 154.6H95.45C96.8749 154.6 98.03 153.445 98.03 152.02V152.01C98.03 150.585 96.8749 149.43 95.45 149.43Z" fill="white"/>
<path d="M95.03 157.69H84.03C82.6051 157.69 81.45 158.845 81.45 160.27V160.28C81.45 161.705 82.6051 162.86 84.03 162.86H95.03C96.4549 162.86 97.61 161.705 97.61 160.28V160.27C97.61 158.845 96.4549 157.69 95.03 157.69Z" fill="white"/>
<path d="M99.24 165.96H88.24C86.8151 165.96 85.66 167.115 85.66 168.54V168.55C85.66 169.975 86.8151 171.13 88.24 171.13H99.24C100.665 171.13 101.82 169.975 101.82 168.55V168.54C101.82 167.115 100.665 165.96 99.24 165.96Z" fill="white"/>
<path d="M94.82 174.22H83.82C82.3951 174.22 81.24 175.375 81.24 176.8V176.81C81.24 178.235 82.3951 179.39 83.82 179.39H94.82C96.2449 179.39 97.4 178.235 97.4 176.81V176.8C97.4 175.375 96.2449 174.22 94.82 174.22Z" fill="white"/>
<path d="M94.82 182.27H83.82C82.3951 182.27 81.24 183.425 81.24 184.85V184.86C81.24 186.285 82.3951 187.44 83.82 187.44H94.82C96.2449 187.44 97.4 186.285 97.4 184.86V184.85C97.4 183.425 96.2449 182.27 94.82 182.27Z" fill="white"/>
<path d="M99.1 189.23H88.1C86.6751 189.23 85.52 190.385 85.52 191.81V191.82C85.52 193.245 86.6751 194.4 88.1 194.4H99.1C100.525 194.4 101.68 193.245 101.68 191.82V191.81C101.68 190.385 100.525 189.23 99.1 189.23Z" fill="white"/>
<path d="M94.18 198.18H83.18C81.7551 198.18 80.6 199.335 80.6 200.76V200.77C80.6 202.195 81.7551 203.35 83.18 203.35H94.18C95.6049 203.35 96.76 202.195 96.76 200.77V200.76C96.76 199.335 95.6049 198.18 94.18 198.18Z" fill="white"/>
<path d="M93.62 206.03H82.62C81.1951 206.03 80.04 207.185 80.04 208.61V208.62C80.04 210.045 81.1951 211.2 82.62 211.2H93.62C95.0449 211.2 96.2 210.045 96.2 208.62V208.61C96.2 207.185 95.0449 206.03 93.62 206.03Z" fill="white"/>
<path d="M93.62 214.08H82.62C81.1951 214.08 80.04 215.235 80.04 216.66V216.67C80.04 218.095 81.1951 219.25 82.62 219.25H93.62C95.0449 219.25 96.2 218.095 96.2 216.67V216.66C96.2 215.235 95.0449 214.08 93.62 214.08Z" fill="white"/>
<path d="M97.91 221.04H86.91C85.4851 221.04 84.33 222.195 84.33 223.62V223.63C84.33 225.055 85.4851 226.21 86.91 226.21H97.91C99.3349 226.21 100.49 225.055 100.49 223.63V223.62C100.49 222.195 99.3349 221.04 97.91 221.04Z" fill="white"/>
<path d="M92.99 229.99H81.99C80.5651 229.99 79.41 231.145 79.41 232.57V232.58C79.41 234.005 80.5651 235.16 81.99 235.16H92.99C94.4149 235.16 95.57 234.005 95.57 232.58V232.57C95.57 231.145 94.4149 229.99 92.99 229.99Z" fill="white"/>
<path d="M97.91 238.5H86.91C85.4851 238.5 84.33 239.655 84.33 241.08V241.09C84.33 242.515 85.4851 243.67 86.91 243.67H97.91C99.3349 243.67 100.49 242.515 100.49 241.09V241.08C100.49 239.655 99.3349 238.5 97.91 238.5Z" fill="white"/>
<path d="M148.66 125.21H104.61C103.185 125.21 102.03 126.365 102.03 127.79V127.8C102.03 129.225 103.185 130.38 104.61 130.38H148.66C150.085 130.38 151.24 129.225 151.24 127.8V127.79C151.24 126.365 150.085 125.21 148.66 125.21Z" fill="#2FF093"/>
<path d="M148.65 132.9H113.46C112.035 132.9 110.88 134.055 110.88 135.48V135.49C110.88 136.915 112.035 138.07 113.46 138.07H148.65C150.075 138.07 151.23 136.915 151.23 135.49V135.48C151.23 134.055 150.075 132.9 148.65 132.9Z" fill="#2FF093"/>
<path d="M148.43 141.17H104.83C103.405 141.17 102.25 142.325 102.25 143.75V143.76C102.25 145.185 103.405 146.34 104.83 146.34H148.43C149.855 146.34 151.01 145.185 151.01 143.76V143.75C151.01 142.325 149.855 141.17 148.43 141.17Z" fill="#2FF093"/>
<path d="M148.65 149.43H113.46C112.035 149.43 110.88 150.585 110.88 152.01V152.02C110.88 153.445 112.035 154.6 113.46 154.6H148.65C150.075 154.6 151.23 153.445 151.23 152.02V152.01C151.23 150.585 150.075 149.43 148.65 149.43Z" fill="#2FF093"/>
<path d="M148.66 157.69H114.39C112.965 157.69 111.81 158.845 111.81 160.27V160.28C111.81 161.705 112.965 162.86 114.39 162.86H148.66C150.085 162.86 151.24 161.705 151.24 160.28V160.27C151.24 158.845 150.085 157.69 148.66 157.69Z" fill="#2FF093"/>
<path d="M148.43 165.96H108.27C106.845 165.96 105.69 167.115 105.69 168.54V168.55C105.69 169.975 106.845 171.13 108.27 171.13H148.43C149.855 171.13 151.01 169.975 151.01 168.55V168.54C151.01 167.115 149.855 165.96 148.43 165.96Z" fill="#2FF093"/>
<path d="M148.43 174.22H108.27C106.845 174.22 105.69 175.375 105.69 176.8V176.81C105.69 178.235 106.845 179.39 108.27 179.39H148.43C149.855 179.39 151.01 178.235 151.01 176.81V176.8C151.01 175.375 149.855 174.22 148.43 174.22Z" fill="#2FF093"/>
<path d="M148.66 182.27H114.39C112.965 182.27 111.81 183.425 111.81 184.85V184.86C111.81 186.285 112.965 187.44 114.39 187.44H148.66C150.085 187.44 151.24 186.285 151.24 184.86V184.85C151.24 183.425 150.085 182.27 148.66 182.27Z" fill="#2FF093"/>
<path d="M148.66 190.32H123.88C122.455 190.32 121.3 191.475 121.3 192.9V192.91C121.3 194.335 122.455 195.49 123.88 195.49H148.66C150.085 195.49 151.24 194.335 151.24 192.91V192.9C151.24 191.475 150.085 190.32 148.66 190.32Z" fill="#2FF093"/>
<path d="M148.65 198.18H105.64C104.215 198.18 103.06 199.335 103.06 200.76V200.77C103.06 202.195 104.215 203.35 105.64 203.35H148.65C150.075 203.35 151.23 202.195 151.23 200.77V200.76C151.23 199.335 150.075 198.18 148.65 198.18Z" fill="#2FF093"/>
<path d="M148.65 213.88H105.64C104.215 213.88 103.06 215.035 103.06 216.46V216.47C103.06 217.895 104.215 219.05 105.64 219.05H148.65C150.075 219.05 151.23 217.895 151.23 216.47V216.46C151.23 215.035 150.075 213.88 148.65 213.88Z" fill="#2FF093"/>
<path d="M148.65 206.03H105.64C104.215 206.03 103.06 207.185 103.06 208.61V208.62C103.06 210.045 104.215 211.2 105.64 211.2H148.65C150.075 211.2 151.23 210.045 151.23 208.62V208.61C151.23 207.185 150.075 206.03 148.65 206.03Z" fill="#2FF093"/>
<path d="M148.65 222.8H105.64C104.215 222.8 103.06 223.955 103.06 225.38V225.39C103.06 226.815 104.215 227.97 105.64 227.97H148.65C150.075 227.97 151.23 226.815 151.23 225.39V225.38C151.23 223.955 150.075 222.8 148.65 222.8Z" fill="#2FF093"/>
<path d="M148.65 238.5H105.64C104.215 238.5 103.06 239.655 103.06 241.08V241.09C103.06 242.515 104.215 243.67 105.64 243.67H148.65C150.075 243.67 151.23 242.515 151.23 241.09V241.08C151.23 239.655 150.075 238.5 148.65 238.5Z" fill="#2FF093"/>
<path d="M148.65 230.65H105.64C104.215 230.65 103.06 231.805 103.06 233.23V233.24C103.06 234.665 104.215 235.82 105.64 235.82H148.65C150.075 235.82 151.23 234.665 151.23 233.24V233.23C151.23 231.805 150.075 230.65 148.65 230.65Z" fill="#2FF093"/>
<g opacity="0.2">
<path d="M148.66 125.21H104.61C103.185 125.21 102.03 126.365 102.03 127.79V127.8C102.03 129.225 103.185 130.38 104.61 130.38H148.66C150.085 130.38 151.24 129.225 151.24 127.8V127.79C151.24 126.365 150.085 125.21 148.66 125.21Z" fill="white"/>
<path d="M148.65 132.9H113.46C112.035 132.9 110.88 134.055 110.88 135.48V135.49C110.88 136.915 112.035 138.07 113.46 138.07H148.65C150.075 138.07 151.23 136.915 151.23 135.49V135.48C151.23 134.055 150.075 132.9 148.65 132.9Z" fill="white"/>
<path d="M148.43 141.17H104.83C103.405 141.17 102.25 142.325 102.25 143.75V143.76C102.25 145.185 103.405 146.34 104.83 146.34H148.43C149.855 146.34 151.01 145.185 151.01 143.76V143.75C151.01 142.325 149.855 141.17 148.43 141.17Z" fill="white"/>
<path d="M148.65 149.43H113.46C112.035 149.43 110.88 150.585 110.88 152.01V152.02C110.88 153.445 112.035 154.6 113.46 154.6H148.65C150.075 154.6 151.23 153.445 151.23 152.02V152.01C151.23 150.585 150.075 149.43 148.65 149.43Z" fill="white"/>
<path d="M148.66 157.69H114.39C112.965 157.69 111.81 158.845 111.81 160.27V160.28C111.81 161.705 112.965 162.86 114.39 162.86H148.66C150.085 162.86 151.24 161.705 151.24 160.28V160.27C151.24 158.845 150.085 157.69 148.66 157.69Z" fill="white"/>
<path d="M148.43 165.96H108.27C106.845 165.96 105.69 167.115 105.69 168.54V168.55C105.69 169.975 106.845 171.13 108.27 171.13H148.43C149.855 171.13 151.01 169.975 151.01 168.55V168.54C151.01 167.115 149.855 165.96 148.43 165.96Z" fill="white"/>
<path d="M148.43 174.22H108.27C106.845 174.22 105.69 175.375 105.69 176.8V176.81C105.69 178.235 106.845 179.39 108.27 179.39H148.43C149.855 179.39 151.01 178.235 151.01 176.81V176.8C151.01 175.375 149.855 174.22 148.43 174.22Z" fill="white"/>
<path d="M148.66 182.27H114.39C112.965 182.27 111.81 183.425 111.81 184.85V184.86C111.81 186.285 112.965 187.44 114.39 187.44H148.66C150.085 187.44 151.24 186.285 151.24 184.86V184.85C151.24 183.425 150.085 182.27 148.66 182.27Z" fill="white"/>
<path d="M148.66 190.32H123.88C122.455 190.32 121.3 191.475 121.3 192.9V192.91C121.3 194.335 122.455 195.49 123.88 195.49H148.66C150.085 195.49 151.24 194.335 151.24 192.91V192.9C151.24 191.475 150.085 190.32 148.66 190.32Z" fill="white"/>
<path d="M148.65 198.18H105.64C104.215 198.18 103.06 199.335 103.06 200.76V200.77C103.06 202.195 104.215 203.35 105.64 203.35H148.65C150.075 203.35 151.23 202.195 151.23 200.77V200.76C151.23 199.335 150.075 198.18 148.65 198.18Z" fill="white"/>
<path d="M148.65 213.88H105.64C104.215 213.88 103.06 215.035 103.06 216.46V216.47C103.06 217.895 104.215 219.05 105.64 219.05H148.65C150.075 219.05 151.23 217.895 151.23 216.47V216.46C151.23 215.035 150.075 213.88 148.65 213.88Z" fill="white"/>
<path d="M148.65 206.03H105.64C104.215 206.03 103.06 207.185 103.06 208.61V208.62C103.06 210.045 104.215 211.2 105.64 211.2H148.65C150.075 211.2 151.23 210.045 151.23 208.62V208.61C151.23 207.185 150.075 206.03 148.65 206.03Z" fill="white"/>
<path d="M148.65 222.8H105.64C104.215 222.8 103.06 223.955 103.06 225.38V225.39C103.06 226.815 104.215 227.97 105.64 227.97H148.65C150.075 227.97 151.23 226.815 151.23 225.39V225.38C151.23 223.955 150.075 222.8 148.65 222.8Z" fill="white"/>
<path d="M148.65 238.5H105.64C104.215 238.5 103.06 239.655 103.06 241.08V241.09C103.06 242.515 104.215 243.67 105.64 243.67H148.65C150.075 243.67 151.23 242.515 151.23 241.09V241.08C151.23 239.655 150.075 238.5 148.65 238.5Z" fill="white"/>
<path d="M148.65 230.65H105.64C104.215 230.65 103.06 231.805 103.06 233.23V233.24C103.06 234.665 104.215 235.82 105.64 235.82H148.65C150.075 235.82 151.23 234.665 151.23 233.24V233.23C151.23 231.805 150.075 230.65 148.65 230.65Z" fill="white"/>
</g>
<path d="M111.81 204.61H27.68V244.88H111.81V204.61Z" fill="#0F4B62"/>
<path d="M51.2 222.11V218.23L37.29 223.9V227.61L51.2 233.51V229.07L42.98 225.87L51.2 222.11Z" fill="#2FF093"/>
<path d="M65.19 222.11V218.23L79.11 223.9V227.61L65.19 233.51V229.07L73.42 225.87L65.19 222.11Z" fill="#2FF093"/>
<path d="M60.08 211.48H65.75L56.27 238.02H51.2L60.08 211.48Z" fill="#2FF093"/>
<path d="M84.26 236.03C86.0163 236.03 87.44 234.606 87.44 232.85C87.44 231.094 86.0163 229.67 84.26 229.67C82.5037 229.67 81.08 231.094 81.08 232.85C81.08 234.606 82.5037 236.03 84.26 236.03Z" fill="#2FF093"/>
<path d="M91.56 236.03C93.3163 236.03 94.74 234.606 94.74 232.85C94.74 231.094 93.3163 229.67 91.56 229.67C89.8037 229.67 88.38 231.094 88.38 232.85C88.38 234.606 89.8037 236.03 91.56 236.03Z" fill="#2FF093"/>
<path d="M99.02 236.03C100.776 236.03 102.2 234.606 102.2 232.85C102.2 231.094 100.776 229.67 99.02 229.67C97.2637 229.67 95.84 231.094 95.84 232.85C95.84 234.606 97.2637 236.03 99.02 236.03Z" fill="#2FF093"/>
<path d="M186.12 57.71V53.83L172.2 59.5V63.21L186.12 69.11V64.67L177.89 61.47L186.12 57.71Z" fill="#2FF093"/>
<path d="M200.1 57.71V53.83L214.02 59.5V63.21L200.1 69.11V64.67L208.33 61.47L200.1 57.71Z" fill="#2FF093"/>
<path d="M194.99 47.08H200.66L191.18 73.62H186.12L194.99 47.08Z" fill="#2FF093"/>
<path d="M219.17 71.63C220.926 71.63 222.35 70.2063 222.35 68.45C222.35 66.6937 220.926 65.27 219.17 65.27C217.414 65.27 215.99 66.6937 215.99 68.45C215.99 70.2063 217.414 71.63 219.17 71.63Z" fill="#2FF093"/>
<path d="M226.47 71.63C228.226 71.63 229.65 70.2063 229.65 68.45C229.65 66.6937 228.226 65.27 226.47 65.27C224.714 65.27 223.29 66.6937 223.29 68.45C223.29 70.2063 224.714 71.63 226.47 71.63Z" fill="#2FF093"/>
<path d="M233.93 71.63C235.686 71.63 237.11 70.2063 237.11 68.45C237.11 66.6937 235.686 65.27 233.93 65.27C232.174 65.27 230.75 66.6937 230.75 68.45C230.75 70.2063 232.174 71.63 233.93 71.63Z" fill="#2FF093"/>
<path d="M75.17 37.23C76.9263 37.23 78.35 35.8063 78.35 34.05C78.35 32.2937 76.9263 30.87 75.17 30.87C73.4137 30.87 71.99 32.2937 71.99 34.05C71.99 35.8063 73.4137 37.23 75.17 37.23Z" fill="white"/>
<path d="M84.69 37.23C86.4463 37.23 87.87 35.8063 87.87 34.05C87.87 32.2937 86.4463 30.87 84.69 30.87C82.9337 30.87 81.51 32.2937 81.51 34.05C81.51 35.8063 82.9337 37.23 84.69 37.23Z" fill="white"/>
<path d="M94.36 37.23C96.1163 37.23 97.54 35.8063 97.54 34.05C97.54 32.2937 96.1163 30.87 94.36 30.87C92.6037 30.87 91.18 32.2937 91.18 34.05C91.18 35.8063 92.6037 37.23 94.36 37.23Z" fill="white"/>
<path d="M191.67 90.65H172.37C170.945 90.65 169.79 91.8051 169.79 93.23V93.24C169.79 94.6649 170.945 95.82 172.37 95.82H191.67C193.095 95.82 194.25 94.6649 194.25 93.24V93.23C194.25 91.8051 193.095 90.65 191.67 90.65Z" fill="#0F4B62"/>
<path d="M191.67 100.66H172.37C170.945 100.66 169.79 101.815 169.79 103.24V103.25C169.79 104.675 170.945 105.83 172.37 105.83H191.67C193.095 105.83 194.25 104.675 194.25 103.25V103.24C194.25 101.815 193.095 100.66 191.67 100.66Z" fill="#0F4B62"/>
<path d="M191.67 110.67H172.37C170.945 110.67 169.79 111.825 169.79 113.25V113.26C169.79 114.685 170.945 115.84 172.37 115.84H191.67C193.095 115.84 194.25 114.685 194.25 113.26V113.25C194.25 111.825 193.095 110.67 191.67 110.67Z" fill="#0F4B62"/>
<path d="M191.67 120.68H172.37C170.945 120.68 169.79 121.835 169.79 123.26V123.27C169.79 124.695 170.945 125.85 172.37 125.85H191.67C193.095 125.85 194.25 124.695 194.25 123.27V123.26C194.25 121.835 193.095 120.68 191.67 120.68Z" fill="#0F4B62"/>
<path d="M191.67 129.7H172.37C170.945 129.7 169.79 130.855 169.79 132.28V132.29C169.79 133.715 170.945 134.87 172.37 134.87H191.67C193.095 134.87 194.25 133.715 194.25 132.29V132.28C194.25 130.855 193.095 129.7 191.67 129.7Z" fill="#0F4B62"/>
<path d="M191.67 139.71H172.37C170.945 139.71 169.79 140.865 169.79 142.29V142.3C169.79 143.725 170.945 144.88 172.37 144.88H191.67C193.095 144.88 194.25 143.725 194.25 142.3V142.29C194.25 140.865 193.095 139.71 191.67 139.71Z" fill="#0F4B62"/>
<path d="M191.67 149.72H172.37C170.945 149.72 169.79 150.875 169.79 152.3V152.31C169.79 153.735 170.945 154.89 172.37 154.89H191.67C193.095 154.89 194.25 153.735 194.25 152.31V152.3C194.25 150.875 193.095 149.72 191.67 149.72Z" fill="#0F4B62"/>
<path d="M191.67 159.73H172.37C170.945 159.73 169.79 160.885 169.79 162.31V162.32C169.79 163.745 170.945 164.9 172.37 164.9H191.67C193.095 164.9 194.25 163.745 194.25 162.32V162.31C194.25 160.885 193.095 159.73 191.67 159.73Z" fill="#0F4B62"/>
<path d="M427.28 120.68H299.3C297.875 120.68 296.72 121.835 296.72 123.26V123.27C296.72 124.695 297.875 125.85 299.3 125.85H427.28C428.705 125.85 429.86 124.695 429.86 123.27V123.26C429.86 121.835 428.705 120.68 427.28 120.68Z" fill="#2FF093"/>
<path d="M352.16 79.3H172.37C170.945 79.3 169.79 80.4551 169.79 81.88V81.89C169.79 83.3149 170.945 84.47 172.37 84.47H352.16C353.585 84.47 354.74 83.3149 354.74 81.89V81.88C354.74 80.4551 353.585 79.3 352.16 79.3Z" fill="#2FF093"/>
<path d="M294.14 90.65H203.24C201.815 90.65 200.66 91.8051 200.66 93.23V93.24C200.66 94.6649 201.815 95.82 203.24 95.82H294.14C295.565 95.82 296.72 94.6649 296.72 93.24V93.23C296.72 91.8051 295.565 90.65 294.14 90.65Z" fill="#2FF093"/>
<path d="M301.52 100.66H203.24C201.815 100.66 200.66 101.815 200.66 103.24V103.25C200.66 104.675 201.815 105.83 203.24 105.83H301.52C302.945 105.83 304.1 104.675 304.1 103.25V103.24C304.1 101.815 302.945 100.66 301.52 100.66Z" fill="#2FF093"/>
<path d="M331.67 110.67H203.24C201.815 110.67 200.66 111.825 200.66 113.25V113.26C200.66 114.685 201.815 115.84 203.24 115.84H331.67C333.095 115.84 334.25 114.685 334.25 113.26V113.25C334.25 111.825 333.095 110.67 331.67 110.67Z" fill="#2FF093"/>
<path d="M289.08 120.68H203.24C201.815 120.68 200.66 121.835 200.66 123.26V123.27C200.66 124.695 201.815 125.85 203.24 125.85H289.08C290.505 125.85 291.66 124.695 291.66 123.27V123.26C291.66 121.835 290.505 120.68 289.08 120.68Z" fill="#2FF093"/>
<path d="M354.02 129.7H203.24C201.815 129.7 200.66 130.855 200.66 132.28V132.29C200.66 133.715 201.815 134.87 203.24 134.87H354.02C355.445 134.87 356.6 133.715 356.6 132.29V132.28C356.6 130.855 355.445 129.7 354.02 129.7Z" fill="#2FF093"/>
<path d="M299.83 139.71H203.24C201.815 139.71 200.66 140.865 200.66 142.29V142.3C200.66 143.725 201.815 144.88 203.24 144.88H299.83C301.255 144.88 302.41 143.725 302.41 142.3V142.29C302.41 140.865 301.255 139.71 299.83 139.71Z" fill="#2FF093"/>
<path d="M429.08 149.72H203.24C201.815 149.72 200.66 150.875 200.66 152.3V152.31C200.66 153.735 201.815 154.89 203.24 154.89H429.08C430.505 154.89 431.66 153.735 431.66 152.31V152.3C431.66 150.875 430.505 149.72 429.08 149.72Z" fill="#2FF093"/>
<path d="M284.23 159.73H203.24C201.815 159.73 200.66 160.885 200.66 162.31V162.32C200.66 163.745 201.815 164.9 203.24 164.9H284.23C285.655 164.9 286.81 163.745 286.81 162.32V162.31C286.81 160.885 285.655 159.73 284.23 159.73Z" fill="#2FF093"/>
<g opacity="0.2">
<path d="M352.16 79.3H172.37C170.945 79.3 169.79 80.4551 169.79 81.88V81.89C169.79 83.3149 170.945 84.47 172.37 84.47H352.16C353.585 84.47 354.74 83.3149 354.74 81.89V81.88C354.74 80.4551 353.585 79.3 352.16 79.3Z" fill="white"/>
<path d="M294.14 90.65H203.24C201.815 90.65 200.66 91.8051 200.66 93.23V93.24C200.66 94.6649 201.815 95.82 203.24 95.82H294.14C295.565 95.82 296.72 94.6649 296.72 93.24V93.23C296.72 91.8051 295.565 90.65 294.14 90.65Z" fill="white"/>
<path d="M301.52 100.66H203.24C201.815 100.66 200.66 101.815 200.66 103.24V103.25C200.66 104.675 201.815 105.83 203.24 105.83H301.52C302.945 105.83 304.1 104.675 304.1 103.25V103.24C304.1 101.815 302.945 100.66 301.52 100.66Z" fill="white"/>
<path d="M331.67 110.67H203.24C201.815 110.67 200.66 111.825 200.66 113.25V113.26C200.66 114.685 201.815 115.84 203.24 115.84H331.67C333.095 115.84 334.25 114.685 334.25 113.26V113.25C334.25 111.825 333.095 110.67 331.67 110.67Z" fill="white"/>
<path d="M289.08 120.68H203.24C201.815 120.68 200.66 121.835 200.66 123.26V123.27C200.66 124.695 201.815 125.85 203.24 125.85H289.08C290.505 125.85 291.66 124.695 291.66 123.27V123.26C291.66 121.835 290.505 120.68 289.08 120.68Z" fill="white"/>
<path d="M354.02 129.7H203.24C201.815 129.7 200.66 130.855 200.66 132.28V132.29C200.66 133.715 201.815 134.87 203.24 134.87H354.02C355.445 134.87 356.6 133.715 356.6 132.29V132.28C356.6 130.855 355.445 129.7 354.02 129.7Z" fill="white"/>
<path d="M299.83 139.71H203.24C201.815 139.71 200.66 140.865 200.66 142.29V142.3C200.66 143.725 201.815 144.88 203.24 144.88H299.83C301.255 144.88 302.41 143.725 302.41 142.3V142.29C302.41 140.865 301.255 139.71 299.83 139.71Z" fill="white"/>
<path d="M429.08 149.72H203.24C201.815 149.72 200.66 150.875 200.66 152.3V152.31C200.66 153.735 201.815 154.89 203.24 154.89H429.08C430.505 154.89 431.66 153.735 431.66 152.31V152.3C431.66 150.875 430.505 149.72 429.08 149.72Z" fill="white"/>
<path d="M284.23 159.73H203.24C201.815 159.73 200.66 160.885 200.66 162.31V162.32C200.66 163.745 201.815 164.9 203.24 164.9H284.23C285.655 164.9 286.81 163.745 286.81 162.32V162.31C286.81 160.885 285.655 159.73 284.23 159.73Z" fill="white"/>
</g>
<path d="M341.3 90.65H303.44V95.82H341.3V90.65Z" fill="#2FF093"/>
<path d="M432.17 113.76H360V78.76H432.18L432.17 113.76ZM360.99 112.76H431.17V79.76H361L360.99 112.76Z" fill="#0F4B62"/>
<path d="M258 253.78H169.29V170.63H258V253.78ZM170.28 252.78H257V171.63H170.29L170.28 252.78Z" fill="#0F4B62"/>
<path d="M391.87 171.13H265.22V175.41H391.87V171.13Z" fill="#2FF093"/>
<path d="M394.2 365.65C394.2 365.65 406.2 353.95 427.53 360.1L439.92 375.1L427.53 379.1H419V371.1H392.84L394.2 365.65Z" fill="#FED0BC"/>
<path d="M527.49 413L565.33 225.19C566.233 220.673 568.701 216.62 572.299 213.744C575.897 210.868 580.395 209.355 585 209.47L674.35 211.8C677.27 211.877 680.136 212.606 682.738 213.934C685.339 215.263 687.611 217.157 689.385 219.478C691.159 221.799 692.391 224.487 692.99 227.346C693.59 230.205 693.542 233.162 692.85 236L649 416.07C649 416.07 576.44 446.8 527.49 413Z" fill="#0F4B62"/>
<path opacity="0.2" d="M527.49 413L565.33 225.19C566.233 220.673 568.701 216.62 572.299 213.744C575.897 210.868 580.395 209.355 585 209.47L674.35 211.8C677.27 211.877 680.136 212.606 682.738 213.934C685.339 215.263 687.611 217.157 689.385 219.478C691.159 221.799 692.391 224.487 692.99 227.346C693.59 230.205 693.542 233.162 692.85 236L649 416.07C649 416.07 576.44 446.8 527.49 413Z" fill="black"/>
<path d="M517.76 413L555.59 225.19C556.5 220.672 558.974 216.621 562.578 213.749C566.182 210.877 570.683 209.369 575.29 209.49L664.63 211.82C667.55 211.897 670.416 212.626 673.018 213.954C675.619 215.283 677.89 217.177 679.665 219.498C681.439 221.819 682.671 224.507 683.27 227.366C683.87 230.225 683.822 233.182 683.13 236.02L639.22 416.02C639.22 416.02 566.7 446.8 517.76 413Z" fill="#0F4B62"/>
<path d="M587.15 248.39C587.15 248.39 555.22 276.67 562.07 315.33L550 418.1L562.55 428.85L613.18 432.29L633.75 398.66L642.87 332.66L651.4 269.79L633.75 239.42H619L587.15 248.39Z" fill="white"/>
<path d="M569.18 483H560.42V611.19H569.18V483Z" fill="#0F4B62"/>
<path d="M630.83 451.08H472.54V475.86H630.83V451.08Z" fill="#0F4B62"/>
<path d="M451.19 585.33L451.42 609.12C451.42 609.12 439.05 617.62 427.06 610.44L425.06 587.63L451.19 585.33Z" fill="#FED0BC"/>
<path d="M375.41 633.71L454.89 626.71L452.89 603.82C452.847 603.34 452.632 602.891 452.285 602.557C451.938 602.222 451.481 602.025 451 602C450.057 601.887 449.1 602.005 448.214 602.345C447.327 602.685 446.536 603.236 445.91 603.95C445.386 604.691 444.692 605.295 443.887 605.713C443.081 606.13 442.187 606.349 441.28 606.35C438.79 606.27 435.61 605.18 433.63 600.83C433.63 600.83 427.73 590 420.7 600.27L401.89 620.73C400.59 622.161 398.988 623.284 397.199 624.018C395.41 624.751 393.48 625.077 391.55 624.97C386.21 624.58 378.58 625.66 375.41 633.71Z" fill="#2FF093"/>
<path d="M455.61 626.583L374.098 633.786C372.667 633.912 371.61 635.174 371.737 636.605L372 639.583C372.126 641.014 373.388 642.071 374.819 641.944L456.331 634.741C457.761 634.615 458.819 633.353 458.692 631.922L458.429 628.944C458.303 627.514 457.041 626.457 455.61 626.583Z" fill="#373660"/>
<path d="M560.23 591.79L555.86 618.11C555.86 618.11 566.74 628.87 579.97 622.23L585.97 597.23L560.23 591.79Z" fill="#FED0BC"/>
<path d="M627.84 652.81L550 635.27L555.06 612.85C555.16 612.376 555.43 611.954 555.818 611.663C556.206 611.373 556.687 611.233 557.17 611.27C558.119 611.279 559.051 611.52 559.884 611.974C560.718 612.427 561.427 613.078 561.95 613.87C562.373 614.675 562.982 615.367 563.727 615.888C564.471 616.41 565.329 616.747 566.23 616.87C568.71 617.12 572 616.46 574.55 612.41C574.55 612.41 581.83 602.47 587.44 613.58L603.35 636.37C604.439 637.967 605.87 639.301 607.539 640.275C609.209 641.248 611.074 641.838 613 642C618.35 642.33 625.77 644.41 627.84 652.81Z" fill="#2FF093"/>
<path d="M546.222 637.09L545.565 640.007C545.249 641.407 546.129 642.799 547.53 643.115L627.358 661.105C628.759 661.42 630.15 660.541 630.466 659.14L631.123 656.223C631.439 654.822 630.559 653.431 629.158 653.115L549.33 635.125C547.929 634.809 546.538 635.689 546.222 637.09Z" fill="#373660"/>
<path d="M590.91 253.88C590.91 253.88 576.62 290.56 603.77 295.32C603.77 295.32 630.45 299.61 633.77 265.79C633.77 265.79 633.27 250.44 628.92 244.02C628.93 244 613.77 261 590.91 253.88Z" fill="#FED0BC"/>
<path d="M590.19 254.58C573.75 269.34 569 347.72 569 347.72C568.55 408.21 558 421.07 558 421.07C539.43 417.26 517.72 412.98 517.72 412.98C521.57 395.89 530.85 344.38 530.85 344.38C487.98 388.21 449.85 387.25 449.85 387.25L427.53 360.1C477.16 341.1 525.08 291.4 538.58 276.64C541.072 273.931 544.151 271.827 547.58 270.49C574.38 259.99 583.07 248.39 583.07 248.39C585.134 250.785 587.532 252.87 590.19 254.58Z" fill="#2FF093"/>
<path d="M619 415.36C619 415.36 626.15 362.01 633.77 338.67C633.77 338.67 651.7 263.67 628.92 244.02C630.161 241.12 630.788 237.994 630.76 234.84C630.76 234.84 649.97 254.84 665.21 260.55C665.21 260.55 699.98 269.6 704.75 308.18C704.75 308.18 708.86 352.98 708.14 372.18C708.068 374.036 707.28 375.792 705.941 377.081C704.603 378.369 702.818 379.089 700.96 379.09L665.06 379.14C665.06 379.14 657.06 404.86 660.92 422.96C660.93 423 650.45 405.83 619 415.36Z" fill="#2FF093"/>
<path opacity="0.2" d="M668.55 306.75C669.2 310.49 669.85 314.23 670.55 317.95C671.25 321.67 671.97 325.4 672.77 329.1C673.57 332.8 674.42 336.49 675.42 340.1C675.93 341.92 676.48 343.73 677.14 345.49C677.451 346.37 677.818 347.228 678.24 348.06C678.588 348.868 679.103 349.594 679.75 350.19L680.52 350.78L679.59 350.97C675.69 351.777 671.803 352.653 667.93 353.6C664.05 354.53 660.2 355.54 656.36 356.6C652.52 357.66 648.69 358.78 644.92 360.06C641.125 361.286 637.403 362.725 633.77 364.37C637.332 362.564 641.006 360.987 644.77 359.65C648.53 358.28 652.34 357.09 656.17 355.94C660 354.79 663.86 353.8 667.74 352.83C671.62 351.86 675.49 350.94 679.41 350.13L679.24 350.91C678.481 350.228 677.88 349.388 677.48 348.45C677.051 347.588 676.677 346.699 676.36 345.79C675.7 343.99 675.16 342.16 674.66 340.32C673.66 336.65 672.84 332.94 672.12 329.21C671.4 325.48 670.74 321.75 670.12 318C669.5 314.25 669 310.52 668.55 306.75Z" fill="black"/>
<path d="M540.71 475.86H588.35V483.19C588.35 484.155 587.967 485.081 587.284 485.764C586.601 486.446 585.675 486.83 584.71 486.83H544.35C543.385 486.83 542.459 486.446 541.776 485.764C541.093 485.081 540.71 484.155 540.71 483.19V475.86Z" fill="#0F4B62"/>
<path opacity="0.2" d="M540.71 475.86H588.35V483.19C588.35 484.155 587.967 485.081 587.284 485.764C586.601 486.446 585.675 486.83 584.71 486.83H544.35C543.385 486.83 542.459 486.446 541.776 485.764C541.093 485.081 540.71 484.155 540.71 483.19V475.86Z" fill="black"/>
<path d="M203.17 632.09L252.71 390.11H260.33L212.7 632.09H203.17Z" fill="#0F4B62"/>
<path d="M276.53 390.11L323.21 632.09H331.78L284.15 390.11H276.53Z" fill="#0F4B62"/>
<g opacity="0.4">
<path d="M203.17 632.09L252.71 390.11H260.33L212.7 632.09H203.17Z" fill="black"/>
<path d="M276.53 390.11L323.21 632.09H331.78L284.15 390.11H276.53Z" fill="black"/>
</g>
<path d="M668.32 632.09L716.9 390.11H724.76L679.51 632.09H668.32Z" fill="#0F4B62"/>
<path d="M788.35 632.09L741.2 390.11H749.05L794.78 632.09H788.35Z" fill="#0F4B62"/>
<g opacity="0.2">
<path d="M668.32 632.09L716.9 390.11H724.76L679.51 632.09H668.32Z" fill="black"/>
<path d="M788.35 632.09L741.2 390.11H749.05L794.78 632.09H788.35Z" fill="black"/>
</g>
<path d="M265.93 202.14L279.48 345.93C279.577 346.94 280.047 347.877 280.797 348.559C281.548 349.242 282.526 349.62 283.54 349.62H515.69C516.772 349.62 517.81 349.19 518.575 348.425C519.34 347.66 519.77 346.622 519.77 345.54C519.775 345.443 519.775 345.347 519.77 345.25L509.15 201.45C509.07 200.425 508.606 199.468 507.852 198.769C507.098 198.071 506.108 197.682 505.08 197.68H270C268.919 197.68 267.881 198.108 267.115 198.871C266.349 199.634 265.915 200.669 265.91 201.75C265.91 201.88 265.92 202 265.93 202.14Z" fill="#D1D3D4"/>
<path d="M384.66 371.1L411.81 266.09H422.17L395.73 371.1H384.66Z" fill="#D1D3D4"/>
<path d="M418.95 371.1H317.49V379.15H418.95V371.1Z" fill="#D1D3D4"/>
<path d="M383.87 253.88C389.128 253.88 393.39 249.618 393.39 244.36C393.39 239.102 389.128 234.84 383.87 234.84C378.612 234.84 374.35 239.102 374.35 244.36C374.35 249.618 378.612 253.88 383.87 253.88Z" fill="#BCBEC0"/>
<path d="M577.44 371.1C577.44 371.1 589.33 352.7 603.77 352.1C603.77 352.1 624.08 353.61 627.46 364.35H633.78C634.81 369.422 634.81 374.648 633.78 379.72L619.01 379.12C619.01 379.12 620.08 371.06 611.01 371.06L577.44 371.1Z" fill="#FED0BC"/>
<path opacity="0.2" d="M530.89 344.38L543.68 332.63C543.68 332.63 555.54 402.26 527.49 418.1L517.76 413L530.89 344.38Z" fill="black"/>
<path d="M573 210.04H578.83" stroke="#FEA74B" stroke-miterlimit="10"/>
<path d="M485.87 371.1H614.18C614.814 371.1 615.442 371.225 616.028 371.468C616.614 371.71 617.147 372.066 617.595 372.515C618.044 372.963 618.4 373.496 618.642 374.082C618.885 374.668 619.01 375.296 619.01 375.93V379.15H481V375.93C481 374.649 481.509 373.42 482.415 372.515C483.32 371.609 484.549 371.1 485.83 371.1H485.87Z" fill="#D1D3D4"/>
<path d="M519 413C519 413 452.32 388.7 444.22 429.19C444.22 429.19 419.45 478.73 418.97 594.96C418.97 594.96 445.17 595.43 459.97 580.67C459.97 580.67 471.88 495.88 500.97 459.2L601.97 460.63C601.97 460.63 585.29 539.23 553.86 595C553.86 595 568.6 610.72 590.29 605C590.29 605 650.55 505 659.6 480.2C659.6 480.2 684.85 443.04 661.03 423.04C661.03 423.04 649.12 403.51 619.11 415.42C619.11 415.42 583.24 430.48 560.6 422.16C558.126 421.245 555.585 420.523 553 420L519 413Z" fill="#373660"/>
<path opacity="0.2" d="M633.78 364.39C634.508 366.787 634.931 369.267 635.04 371.77C635.172 374.306 634.943 376.848 634.36 379.32L633.78 378.55C638.753 378.43 643.723 378.347 648.69 378.3H663.61C668.583 378.3 673.553 378.377 678.52 378.53C683.52 378.66 688.52 378.84 693.44 379.12C688.44 379.4 683.5 379.59 678.52 379.73C673.54 379.87 668.58 379.95 663.61 379.99H648.7C643.72 379.95 638.747 379.873 633.78 379.76H633L633.21 379.01C633.562 377.847 633.829 376.661 634.01 375.46C634.194 374.248 634.307 373.026 634.35 371.8C634.429 369.324 634.241 366.846 633.79 364.41L633.78 364.39Z" fill="black"/>
<path d="M362.56 266.09L335.52 371.1H392.84L418.95 266.09H362.56Z" fill="#BCBEC0"/>
<path d="M783.98 375.13H630.83V379.16H783.98V375.13Z" fill="#BCBEC0"/>
<path d="M718.57 286.59L688.09 375.13H783.99L816.38 286.59H718.57Z" fill="#D1D3D4"/>
<path d="M758.9 339.3C762.584 339.3 765.57 336.314 765.57 332.63C765.57 328.946 762.584 325.96 758.9 325.96C755.216 325.96 752.23 328.946 752.23 332.63C752.23 336.314 755.216 339.3 758.9 339.3Z" fill="#BCBEC0"/>
<path d="M798.59 379.16H203.17V390.12H798.59V379.16Z" fill="#0F4B62"/>
<path d="M582.73 364.39C586.601 363.299 590.599 362.721 594.62 362.67C596.633 362.631 598.645 362.809 600.62 363.2C602.677 363.501 604.573 364.488 606 366C605.231 365.381 604.347 364.918 603.4 364.64C602.462 364.354 601.502 364.147 600.53 364.02C598.576 363.78 596.608 363.68 594.64 363.72C592.64 363.72 590.64 363.85 588.7 363.97C586.76 364.09 584.73 364.21 582.73 364.39Z" fill="#F4A57F"/>
<path d="M590.32 357.76C594.195 356.67 598.195 356.092 602.22 356.04C604.233 356.001 606.245 356.179 608.22 356.57C610.253 356.87 612.131 357.833 613.56 359.31C612.797 358.716 611.928 358.272 611 358C610.066 357.713 609.109 357.506 608.14 357.38C606.186 357.14 604.218 357.04 602.25 357.08C600.25 357.08 598.25 357.2 596.31 357.33C594.37 357.46 592.32 357.58 590.32 357.76Z" fill="#F4A57F"/>
<path d="M566.67 266.27C566.67 266.27 580.17 266.27 580.03 275.07C580.03 275.07 584.44 257.72 593.71 250.73L585.71 244.34C585.71 244.34 577.07 248 566.67 266.27Z" fill="#2FF093"/>
<path opacity="0.2" d="M566.67 266.27C566.67 266.27 580.17 266.27 580.03 275.07C580.03 275.07 584.44 257.72 593.71 250.73L585.71 244.34C585.71 244.34 577.07 248 566.67 266.27Z" fill="white"/>
<path d="M640.13 273C640.13 273 647.8 263.63 656.81 275.05C656.81 275.05 658.91 241.59 626.64 233.91L623.42 245.15C623.42 245.15 638.39 244.34 640.13 273Z" fill="#2FF093"/>
<path opacity="0.2" d="M640.13 273C640.13 273 647.8 263.63 656.81 275.05C656.81 275.05 658.91 241.59 626.64 233.91L623.42 245.15C623.42 245.15 638.39 244.34 640.13 273Z" fill="white"/>
<path d="M573 184.38C573 184.38 573.9 197.77 578.59 201L581.87 189.7C581.87 189.7 575.48 188.4 573 184.38Z" fill="black"/>
<path d="M603.77 253.88C618.24 253.88 629.97 235.327 629.97 212.44C629.97 189.553 618.24 171 603.77 171C589.3 171 577.57 189.553 577.57 212.44C577.57 235.327 589.3 253.88 603.77 253.88Z" fill="#FED0BC"/>
<path d="M570.63 180.61C572.82 185.21 577.23 190.27 585.98 190.01C590.352 189.821 594.583 188.407 598.19 185.93C602.19 183.28 609.06 179.74 612.35 184.33C612.35 184.33 600.44 188.14 599.48 193.33C602.652 191.089 606.063 189.208 609.65 187.72C611.811 186.861 614.175 186.649 616.455 187.109C618.734 187.568 620.831 188.681 622.49 190.31C624.911 192.771 626.813 195.694 628.082 198.905C629.352 202.116 629.963 205.548 629.88 209C629.88 209 637.88 207.16 639.64 189.6C640.261 183.708 639.038 177.768 636.14 172.6C631.14 163.88 620.43 153.95 598.53 163.85C598.53 163.85 595.11 166.49 589.95 162.73C588.229 161.438 586.216 160.59 584.09 160.26C580.27 159.72 574.7 160.15 571.19 165.87C569.876 168.086 569.136 170.595 569.039 173.169C568.941 175.743 569.488 178.301 570.63 180.61Z" fill="black"/>
<path d="M578.4 222.81C578.4 222.81 581.86 234.23 585.79 231.37C585.79 231.37 592.79 219.58 603.79 230.3C603.79 230.3 615.15 242.2 629.42 221.07C629.42 221.07 637.97 251.73 613.32 256.74C613.32 256.74 586.52 263.52 579.74 241.37C578.739 235.236 578.291 229.024 578.4 222.81Z" fill="black"/>
<path d="M581.59 221.53C579.792 221.53 578.035 220.997 576.54 219.998C575.045 218.999 573.88 217.58 573.192 215.919C572.504 214.258 572.324 212.43 572.675 210.667C573.025 208.903 573.891 207.284 575.162 206.012C576.434 204.741 578.053 203.875 579.817 203.525C581.58 203.174 583.408 203.354 585.069 204.042C586.73 204.73 588.149 205.895 589.148 207.39C590.147 208.885 590.68 210.642 590.68 212.44C590.677 214.85 589.719 217.161 588.015 218.865C586.311 220.569 584 221.527 581.59 221.53ZM581.59 204.35C579.99 204.35 578.426 204.824 577.095 205.713C575.765 206.602 574.728 207.866 574.116 209.344C573.504 210.822 573.343 212.449 573.655 214.018C573.968 215.588 574.738 217.029 575.869 218.16C577.001 219.292 578.442 220.062 580.012 220.375C581.581 220.687 583.208 220.526 584.686 219.914C586.164 219.302 587.428 218.265 588.317 216.935C589.206 215.604 589.68 214.04 589.68 212.44C589.677 210.295 588.824 208.239 587.308 206.722C585.791 205.206 583.735 204.353 581.59 204.35Z" fill="#2FF093"/>
<path d="M604.62 221.53C602.822 221.53 601.065 220.997 599.57 219.998C598.075 218.999 596.91 217.58 596.222 215.919C595.534 214.258 595.354 212.43 595.705 210.667C596.055 208.903 596.921 207.284 598.192 206.012C599.464 204.741 601.083 203.875 602.847 203.525C604.61 203.174 606.438 203.354 608.099 204.042C609.76 204.73 611.179 205.895 612.178 207.39C613.177 208.885 613.71 210.642 613.71 212.44C613.707 214.85 612.749 217.161 611.045 218.865C609.341 220.569 607.03 221.527 604.62 221.53ZM604.62 204.35C603.02 204.35 601.456 204.824 600.125 205.713C598.795 206.602 597.758 207.866 597.146 209.344C596.533 210.822 596.373 212.449 596.685 214.018C596.998 215.588 597.768 217.029 598.9 218.16C600.031 219.292 601.472 220.062 603.042 220.375C604.611 220.687 606.238 220.526 607.716 219.914C609.194 219.302 610.458 218.265 611.347 216.935C612.236 215.604 612.71 214.04 612.71 212.44C612.707 210.295 611.854 208.239 610.338 206.722C608.821 205.206 606.765 204.353 604.62 204.35Z" fill="#2FF093"/>
<path d="M629.97 210.24H613.21V211.24H629.97V210.24Z" fill="#2FF093"/>
<path d="M592.07 224.57L591.81 224.46L591.93 224.21C593.84 220.21 593.39 211.96 593.38 211.87H593.92C593.92 212.21 594.36 220.02 592.53 224.2C593.622 224.587 594.803 224.65 595.93 224.38L596.1 224.88C594.758 225.209 593.346 225.1 592.07 224.57Z" fill="#F4A57F"/>
<path d="M605.402 213.957C605.451 212.644 604.765 211.552 603.871 211.519C602.977 211.486 602.213 212.523 602.164 213.837C602.115 215.15 602.8 216.242 603.694 216.276C604.589 216.309 605.353 215.271 605.402 213.957Z" fill="black"/>
<path d="M582.144 216.168C583.015 215.963 583.477 214.76 583.176 213.481C582.875 212.201 581.925 211.33 581.054 211.535C580.183 211.74 579.721 212.943 580.022 214.223C580.323 215.502 581.273 216.373 582.144 216.168Z" fill="black"/>
<path d="M609.39 201.18C607.66 200.04 605.608 199.49 603.54 199.61C602.08 199.72 600.75 200.16 600.75 201.39C600.75 201.39 600.28 202.95 609.75 201.39L609.39 201.18Z" fill="black"/>
<path d="M578.7 201.82C580.252 200.452 582.207 199.627 584.27 199.47C585.74 199.38 587.11 199.64 587.27 200.86C587.27 200.86 587.95 202.34 578.39 202.08L578.7 201.82Z" fill="black"/>
<path d="M597.07 236.93H595.36C594.76 236.906 594.162 236.846 593.57 236.75C591.94 236.53 590.41 236.33 589.78 237.5C589.653 237.861 589.6 238.244 589.626 238.625C589.652 239.007 589.755 239.38 589.93 239.72C590.226 240.397 590.673 240.997 591.236 241.475C591.799 241.954 592.464 242.297 593.18 242.48C593.699 242.62 594.233 242.7 594.77 242.72C595.557 242.753 596.342 242.616 597.072 242.32C597.802 242.023 598.459 241.573 599 241C599.365 240.65 599.652 240.227 599.841 239.758C600.031 239.289 600.119 238.785 600.1 238.28C600.093 237.972 599.98 237.677 599.779 237.443C599.578 237.21 599.303 237.053 599 237C598.363 236.888 597.713 236.864 597.07 236.93Z" fill="#F4A57F"/>
<path d="M595.33 237.4C593.03 237.28 590.86 236.52 590.21 237.71C589.74 238.56 590.64 242.07 594.78 242.21C597.68 242.3 599.78 239.92 599.59 238.27C599.46 237 597.64 237.53 595.33 237.4Z" fill="black"/>
<path d="M590.21 237.71C590.17 237.813 590.139 237.921 590.12 238.03C593.29 240.24 597.72 240.1 598.79 237.48C598.02 237.32 596.79 237.48 595.33 237.4C593 237.28 590.86 236.52 590.21 237.71Z" fill="white"/>
<path d="M634.96 214.868C635.887 211.018 634.771 207.448 632.468 206.893C630.164 206.338 627.545 209.01 626.618 212.859C625.691 216.709 626.807 220.28 629.11 220.835C631.414 221.389 634.033 218.718 634.96 214.868Z" fill="#FED0BC"/>
<path d="M596.02 210.24H590.19V211.24H596.02V210.24Z" fill="#2FF093"/>
<path d="M546.71 25.87H496.75V66.28H546.71V25.87Z" fill="#0F4B62"/>
<path d="M515.54 56.53C514.869 56.3509 514.293 55.9214 513.93 55.33C513.582 54.5903 513.421 53.7765 513.46 52.96V49.35C513.469 48.9405 513.432 48.5314 513.35 48.13C513.288 47.8635 513.141 47.6246 512.93 47.45C512.63 47.2597 512.285 47.1527 511.93 47.14V45C512.285 44.9873 512.63 44.8803 512.93 44.69C513.141 44.5154 513.288 44.2765 513.35 44.01C513.432 43.6086 513.469 43.1995 513.46 42.79V39.2C513.419 38.3801 513.58 37.5627 513.93 36.82C514.294 36.2317 514.871 35.8057 515.54 35.63C516.591 35.339 517.679 35.2009 518.77 35.22V38.09C518.384 38.1139 518.003 38.1948 517.64 38.33C517.515 38.3878 517.41 38.4836 517.342 38.6038C517.274 38.724 517.245 38.8626 517.26 39V43C517.322 43.7544 517.097 44.5046 516.63 45.1C516.162 45.5686 515.568 45.8916 514.92 46.03C515.568 46.1684 516.162 46.4914 516.63 46.96C517.102 47.5455 517.328 48.2912 517.26 49.04V53.04C517.243 53.1815 517.272 53.3248 517.342 53.4489C517.412 53.5729 517.52 53.6714 517.65 53.73C518.01 53.8593 518.388 53.9302 518.77 53.94V56.84C517.684 56.8872 516.597 56.7829 515.54 56.53Z" fill="white"/>
<path d="M524.72 54C525.096 53.9911 525.467 53.9201 525.82 53.79C525.946 53.7275 526.05 53.6279 526.118 53.5046C526.186 53.3812 526.215 53.24 526.2 53.1V49.1C526.132 48.3464 526.361 47.596 526.84 47.01C527.307 46.5311 527.912 46.2095 528.57 46.09C527.909 45.9706 527.301 45.6491 526.83 45.17C526.36 44.572 526.135 43.8178 526.2 43.06V39C526.215 38.8626 526.186 38.724 526.118 38.6038C526.05 38.4836 525.946 38.3878 525.82 38.33C525.466 38.1996 525.096 38.1188 524.72 38.09V35.22C525.807 35.201 526.892 35.3391 527.94 35.63C528.601 35.8121 529.169 36.2371 529.53 36.82C529.889 37.5596 530.051 38.3794 530 39.2V42.81C529.96 43.3657 530.06 43.9226 530.29 44.43C530.436 44.6138 530.621 44.7622 530.833 44.8644C531.044 44.9665 531.275 45.0197 531.51 45.02V47.14C531.275 47.1403 531.044 47.1935 530.833 47.2956C530.621 47.3978 530.436 47.5462 530.29 47.73C530.06 48.2374 529.96 48.7943 530 49.35V53C530.046 53.817 529.884 54.6323 529.53 55.37C529.172 55.958 528.604 56.3873 527.94 56.57C526.892 56.8609 525.807 56.999 524.72 56.98V54Z" fill="white"/>
<path d="M401.17 455.98H339.28V589.21H401.17V455.98Z" fill="#D1D3D4"/>
<path d="M395.85 575.18V566.57C395.85 561 395.79 552.92 395.75 542.77C395.75 522.46 395.65 493.87 395.58 460.59L395.93 460.95H344.16L344.53 460.57C344.53 505.08 344.46 545.5 344.43 575.16L344.16 574.89L382 575L392.33 575.07H392.43L382.03 575.27L344.03 575.42H343.76V575.15C343.76 545.49 343.7 505.07 343.66 460.56V460.19H396.17V460.54C396.1 493.91 396.04 522.59 396 542.96C396 553.08 395.92 561.13 395.9 566.68V574.59C395.87 575 395.85 575.18 395.85 575.18Z" fill="#BCBEC0"/>
<path d="M392.66 470.29C392.66 470.29 392.66 469.79 392.59 468.9C392.52 468.01 392.53 466.67 392.49 465.04L392.66 465.2C384.66 465.33 367.48 465.41 347.66 465.41L348 465V470.23L347.63 469.86C360.22 469.86 371.41 469.95 379.51 470.02L389.09 470.13L391.71 470.18C392.044 470.172 392.378 470.188 392.71 470.23C392.427 470.26 392.143 470.26 391.86 470.23H389.33L379.83 470.34C371.75 470.42 360.43 470.49 347.68 470.5H347.31V465L347.68 464.63C367.53 464.63 384.68 464.71 392.68 464.84H392.84V465C392.84 466.67 392.77 468 392.75 469C392.75 469.432 392.72 469.863 392.66 470.29Z" fill="#BCBEC0"/>
<path d="M352.16 474.06C352.16 474.27 351.23 474.44 350.08 474.44C348.93 474.44 348.01 474.27 348.01 474.06C348.01 473.85 348.94 473.69 350.08 473.69C351.22 473.69 352.16 473.86 352.16 474.06Z" fill="#BCBEC0"/>
<path d="M391.45 480.94C391.45 481.14 381.87 481.31 370.05 481.31C358.23 481.31 348.64 481.14 348.64 480.94C348.64 480.74 358.23 480.57 370.05 480.57C381.87 480.57 391.45 480.73 391.45 480.94Z" fill="#BCBEC0"/>
<path d="M391.64 489.24C391.64 489.45 382.22 489.61 370.64 489.61C359.06 489.61 349.64 489.45 349.64 489.24C349.64 489.03 359.05 488.87 370.64 488.87C382.23 488.87 391.64 489 391.64 489.24Z" fill="#BCBEC0"/>
<path d="M370.05 512.05C371.933 512.05 373.46 510.523 373.46 508.64C373.46 506.757 371.933 505.23 370.05 505.23C368.167 505.23 366.64 506.757 366.64 508.64C366.64 510.523 368.167 512.05 370.05 512.05Z" fill="#BCBEC0"/>
<path d="M360.45 508.49C360.45 508.69 358.45 508.86 355.9 508.86C353.35 508.86 351.34 508.69 351.34 508.49C351.34 508.29 353.34 508.11 355.9 508.11C358.46 508.11 360.45 508.28 360.45 508.49Z" fill="#BCBEC0"/>
<path d="M388.1 507.61C388.1 507.81 386.16 507.98 383.76 507.98C381.36 507.98 379.43 507.81 379.43 507.61C379.43 507.41 381.37 507.24 383.76 507.24C386.15 507.24 388.1 507.4 388.1 507.61Z" fill="#BCBEC0"/>
<path d="M114.37 314.12H56.53V355.35H114.37V314.12Z" fill="#0F4B62"/>
<path d="M114.82 320.23C114.82 320.37 101.82 320.49 85.66 320.49C69.5 320.49 56.51 320.37 56.51 320.23C56.51 320.09 69.56 320 85.66 320C101.76 320 114.82 320.09 114.82 320.23Z" fill="white"/>
<path d="M61.25 317.22C61.2723 317.375 61.2481 317.533 61.1805 317.674C61.1129 317.815 61.005 317.933 60.8703 318.012C60.7357 318.092 60.5804 318.13 60.4242 318.121C60.268 318.113 60.1179 318.058 59.9929 317.964C59.8679 317.87 59.7737 317.741 59.7222 317.593C59.6706 317.445 59.6641 317.285 59.7034 317.134C59.7427 316.983 59.8261 316.846 59.943 316.742C60.0599 316.638 60.205 316.571 60.36 316.55H60.47C60.6615 316.539 60.8499 316.602 60.9954 316.727C61.1409 316.852 61.2322 317.029 61.25 317.22Z" fill="white"/>
<path d="M64.09 317.22C64.1123 317.375 64.0881 317.533 64.0205 317.674C63.9529 317.815 63.845 317.933 63.7103 318.012C63.5757 318.092 63.4204 318.13 63.2642 318.121C63.108 318.113 62.9579 318.058 62.8329 317.964C62.7079 317.87 62.6137 317.741 62.5622 317.593C62.5106 317.445 62.5041 317.285 62.5434 317.134C62.5827 316.983 62.6661 316.846 62.783 316.742C62.8999 316.638 63.045 316.571 63.2 316.55H63.31C63.5015 316.539 63.6899 316.602 63.8354 316.727C63.9809 316.852 64.0722 317.029 64.09 317.22Z" fill="white"/>
<path d="M66.15 317.9C66.5808 317.9 66.93 317.596 66.93 317.22C66.93 316.844 66.5808 316.54 66.15 316.54C65.7192 316.54 65.37 316.844 65.37 317.22C65.37 317.596 65.7192 317.9 66.15 317.9Z" fill="white"/>
<path d="M251.18 282.93H198.89V320.2H251.18V282.93Z" fill="#2FF093"/>
<path d="M251.58 288.46C251.58 288.55 239.78 288.62 225.23 288.62C210.68 288.62 198.87 288.55 198.87 288.46C198.87 288.37 210.67 288.29 225.23 288.29C239.79 288.29 251.58 288.37 251.58 288.46Z" fill="white"/>
<path d="M203.16 285.74C203.147 285.916 203.065 286.08 202.932 286.196C202.8 286.312 202.626 286.371 202.45 286.36C202.369 286.36 202.288 286.344 202.213 286.313C202.138 286.282 202.069 286.236 202.012 286.178C201.954 286.121 201.908 286.052 201.877 285.977C201.846 285.902 201.83 285.821 201.83 285.74C201.83 285.659 201.846 285.578 201.877 285.503C201.908 285.428 201.954 285.359 202.012 285.302C202.069 285.244 202.138 285.198 202.213 285.167C202.288 285.136 202.369 285.12 202.45 285.12C202.626 285.109 202.8 285.168 202.932 285.284C203.065 285.4 203.147 285.564 203.16 285.74Z" fill="white"/>
<path d="M205.72 285.74C205.715 285.827 205.693 285.912 205.655 285.99C205.617 286.068 205.564 286.138 205.499 286.195C205.434 286.253 205.358 286.297 205.276 286.325C205.194 286.354 205.107 286.365 205.02 286.36C204.856 286.389 204.686 286.352 204.549 286.256C204.413 286.16 204.319 286.014 204.29 285.85C204.261 285.686 204.298 285.516 204.394 285.379C204.49 285.243 204.636 285.149 204.8 285.12H205C205.087 285.115 205.174 285.126 205.256 285.155C205.338 285.183 205.414 285.227 205.479 285.285C205.544 285.342 205.597 285.412 205.635 285.49C205.673 285.568 205.695 285.653 205.7 285.74H205.72Z" fill="white"/>
<path d="M208.29 285.74C208.277 285.916 208.195 286.08 208.062 286.196C207.93 286.312 207.756 286.371 207.58 286.36C207.416 286.36 207.258 286.295 207.142 286.178C207.025 286.062 206.96 285.904 206.96 285.74C206.96 285.576 207.025 285.418 207.142 285.302C207.258 285.185 207.416 285.12 207.58 285.12C207.756 285.109 207.93 285.168 208.062 285.284C208.195 285.4 208.277 285.564 208.29 285.74Z" fill="white"/>
<path d="M494.22 148.34C494.204 147.394 494.375 146.453 494.723 145.573C495.071 144.693 495.589 143.89 496.247 143.21C496.906 142.53 497.692 141.987 498.561 141.611C499.429 141.235 500.364 141.034 501.31 141.02C501.443 141.01 501.577 141.01 501.71 141.02C502.657 140.982 503.601 141.14 504.484 141.484C505.367 141.829 506.169 142.351 506.84 143.02L506.19 143.7C505.606 143.127 504.91 142.68 504.147 142.386C503.383 142.092 502.568 141.957 501.75 141.99C500.913 141.953 500.077 142.081 499.289 142.368C498.502 142.655 497.779 143.095 497.162 143.662C496.546 144.229 496.047 144.913 495.695 145.673C495.343 146.434 495.145 147.256 495.112 148.094C495.079 148.931 495.212 149.767 495.503 150.552C495.794 151.338 496.238 152.059 496.808 152.673C497.378 153.287 498.064 153.782 498.827 154.13C499.589 154.478 500.413 154.671 501.25 154.7C501.417 154.71 501.583 154.71 501.75 154.7C502.569 154.725 503.385 154.583 504.148 154.284C504.911 153.985 505.606 153.535 506.19 152.96L506.84 153.64C506.169 154.309 505.367 154.831 504.484 155.176C503.601 155.52 502.657 155.678 501.71 155.64C499.797 155.71 497.935 155.019 496.53 153.718C495.126 152.417 494.295 150.613 494.22 148.7V148.34Z" fill="white"/>
<path d="M508.83 153.71L509.3 152.92C510.598 154.109 512.3 154.76 514.06 154.74C516.95 154.74 518.23 153.48 518.23 151.91C518.23 147.58 509.23 150.18 509.23 144.91C509.23 142.91 510.8 141.07 514.34 141.07C515.891 141.059 517.409 141.511 518.7 142.37L518.3 143.21C517.115 142.421 515.724 142 514.3 142C511.5 142 510.24 143.3 510.24 144.89C510.24 149.22 519.24 146.66 519.24 151.89C519.24 153.89 517.61 155.71 514.05 155.71C512.116 155.748 510.243 155.031 508.83 153.71Z" fill="white"/>
<path d="M521.39 153.71L521.86 152.92C523.157 154.118 524.865 154.77 526.63 154.74C529.51 154.74 530.79 153.48 530.79 151.91C530.79 147.58 521.79 150.18 521.79 144.91C521.79 142.91 523.36 141.07 526.91 141.07C528.457 141.059 529.973 141.512 531.26 142.37L530.87 143.21C529.685 142.421 528.294 142 526.87 142C524.06 142 522.8 143.3 522.8 144.89C522.8 149.22 531.8 146.66 531.8 151.89C531.8 153.89 530.17 155.71 526.6 155.71C524.669 155.749 522.799 155.031 521.39 153.71Z" fill="white"/>
<path d="M544.14 167.12V164.12C544.14 162.18 544.14 159.37 544.14 155.77C544.14 148.55 544.08 138.19 544.04 125.55L544.24 125.75H479.88L480.13 125.5V167.04L479.9 166.8L526.17 166.92L539.44 166.98H539.51L526.29 167.04L479.87 167.16H479.64V125.16H479.9H544.21H544.41V125.36C544.41 138.05 544.33 148.45 544.3 155.7C544.3 159.28 544.3 162.09 544.3 164.01V166.17C544.288 166.492 544.234 166.811 544.14 167.12Z" fill="#0F4B62"/>
<path d="M544.14 131.74C544.14 131.88 529.73 131.99 511.97 131.99C494.21 131.99 479.79 131.88 479.79 131.74C479.79 131.6 494.2 131.49 511.97 131.49C529.74 131.49 544.14 131.6 544.14 131.74Z" fill="#0F4B62"/>
<path d="M484.58 128.71C484.565 128.905 484.473 129.087 484.326 129.216C484.178 129.345 483.986 129.411 483.79 129.4C483.699 129.416 483.607 129.414 483.517 129.394C483.427 129.373 483.342 129.336 483.267 129.283C483.192 129.23 483.128 129.163 483.078 129.085C483.029 129.007 482.996 128.921 482.98 128.83C482.951 128.647 482.994 128.46 483.1 128.309C483.207 128.158 483.368 128.054 483.55 128.02C483.63 128.01 483.71 128.01 483.79 128.02C483.986 128.009 484.178 128.075 484.326 128.204C484.473 128.333 484.565 128.515 484.58 128.71Z" fill="#0F4B62"/>
<path d="M487.44 128.71C487.425 128.905 487.333 129.087 487.186 129.216C487.038 129.345 486.846 129.411 486.65 129.4C486.559 129.416 486.467 129.414 486.377 129.394C486.287 129.373 486.202 129.336 486.127 129.283C486.052 129.23 485.988 129.163 485.938 129.085C485.889 129.007 485.856 128.921 485.84 128.83C485.811 128.647 485.854 128.46 485.96 128.309C486.067 128.158 486.228 128.054 486.41 128.02C486.49 128.01 486.57 128.01 486.65 128.02C486.846 128.009 487.038 128.075 487.186 128.204C487.333 128.333 487.425 128.515 487.44 128.71Z" fill="#0F4B62"/>
<path d="M490.3 128.71C490.285 128.905 490.193 129.087 490.046 129.216C489.898 129.345 489.706 129.411 489.51 129.4C489.419 129.416 489.327 129.414 489.237 129.394C489.147 129.373 489.062 129.336 488.987 129.283C488.912 129.23 488.848 129.163 488.798 129.085C488.749 129.007 488.716 128.921 488.7 128.83C488.671 128.647 488.714 128.46 488.82 128.309C488.927 128.158 489.088 128.054 489.27 128.02C489.35 128.01 489.43 128.01 489.51 128.02C489.706 128.009 489.898 128.075 490.046 128.204C490.193 128.333 490.285 128.515 490.3 128.71Z" fill="#0F4B62"/>
<path d="M142.48 513.22C148.48 518.22 146.48 547.62 165.24 534.97C184 522.32 152.04 514.83 153.86 507.66C156.42 497.66 198.63 509.66 191.55 490.46C184.47 471.26 159.23 500.14 152.55 492.99C146.45 486.41 176.83 462.63 162.67 458.59C148.51 454.55 151.52 488.94 142.43 488.94C135.33 488.94 136.66 456.06 123.61 467.69C110.56 479.32 139.08 490.79 135.35 498.01C132.51 503.5 110.06 489.95 111.07 502.6C112.08 515.25 136.08 507.93 142.48 513.22Z" fill="#CECECE"/>
<path d="M134.36 560.26C134.231 560.26 134.107 560.21 134.013 560.121C133.92 560.031 133.865 559.909 133.86 559.78C132.35 515.06 145.96 498.03 146.09 497.86C146.177 497.759 146.3 497.697 146.433 497.685C146.565 497.674 146.697 497.715 146.8 497.8C146.85 497.841 146.891 497.891 146.922 497.948C146.952 498.004 146.972 498.066 146.978 498.131C146.985 498.195 146.978 498.259 146.96 498.321C146.941 498.383 146.911 498.44 146.87 498.49C146.74 498.65 133.37 515.49 134.87 559.74C134.873 559.871 134.824 559.998 134.734 560.093C134.644 560.188 134.521 560.245 134.39 560.25L134.36 560.26Z" fill="#A6A6A6"/>
<path d="M173.11 521.61C170.69 516.74 150.62 513.41 162.11 502.84C173.6 492.27 173.56 514.93 178.67 514.84C185.82 514.72 184.43 484.42 196.23 492.24C208.03 500.06 184.57 512.43 188.33 518.02C191.78 523.17 212.6 506.53 213.07 516.7C213.54 526.87 190.89 519.34 189.44 525.47C188.31 530.24 210.63 534.58 200.73 541.47C190.83 548.36 187.66 527.4 182.22 528.76C178.07 529.76 183.61 547.05 175.27 544.35C166.93 541.65 175.65 526.71 173.11 521.61Z" fill="#DBDBDB"/>
<path d="M140.77 560.26H140.72C140.59 560.245 140.471 560.18 140.387 560.08C140.303 559.979 140.261 559.85 140.27 559.72C141.47 546.64 146.16 536.66 154.21 530.04C166.78 519.71 183.36 521.31 183.53 521.32C183.661 521.337 183.78 521.404 183.864 521.506C183.947 521.608 183.989 521.738 183.98 521.87C183.976 521.934 183.96 521.997 183.931 522.054C183.903 522.112 183.863 522.163 183.815 522.205C183.766 522.247 183.71 522.278 183.649 522.298C183.588 522.318 183.524 522.325 183.46 522.32C183.3 522.32 167.1 520.76 154.87 530.82C147.03 537.26 142.47 547.01 141.3 559.82C141.283 559.946 141.219 560.062 141.121 560.143C141.022 560.224 140.897 560.266 140.77 560.26Z" fill="#A6A6A6"/>
<path d="M109.32 517.27C103.32 522.27 105.32 551.67 86.56 539.02C67.8 526.37 99.77 518.87 97.94 511.71C95.39 501.71 53.17 513.71 60.26 494.51C67.35 475.31 92.57 504.2 99.26 497.04C105.35 490.47 74.98 466.69 89.14 462.64C103.3 458.59 100.25 493 109.37 493C116.47 493 115.15 460.11 128.2 471.75C141.25 483.39 112.72 494.85 116.46 502.07C119.29 507.56 141.75 494.01 140.74 506.65C139.73 519.29 115.69 512 109.32 517.27Z" fill="#92E3A9"/>
<path d="M109.32 517.27C103.32 522.27 105.32 551.67 86.56 539.02C67.8 526.37 99.77 518.87 97.94 511.71C95.39 501.71 53.17 513.71 60.26 494.51C67.35 475.31 92.57 504.2 99.26 497.04C105.35 490.47 74.98 466.69 89.14 462.64C103.3 458.59 100.25 493 109.37 493C116.47 493 115.15 460.11 128.2 471.75C141.25 483.39 112.72 494.85 116.46 502.07C119.29 507.56 141.75 494.01 140.74 506.65C139.73 519.29 115.69 512 109.32 517.27Z" fill="#DBDBDB"/>
<path d="M126.77 565.82C126.646 565.818 126.527 565.772 126.435 565.689C126.343 565.606 126.285 565.493 126.27 565.37C122.27 526.53 104.8 502.77 104.62 502.53C104.54 502.424 104.506 502.291 104.525 502.159C104.544 502.028 104.614 501.91 104.72 501.83C104.827 501.753 104.96 501.72 105.09 501.739C105.221 501.758 105.339 501.826 105.42 501.93C105.6 502.17 123.25 526.14 127.27 565.27C127.277 565.336 127.271 565.402 127.252 565.465C127.233 565.529 127.202 565.588 127.16 565.639C127.118 565.69 127.066 565.732 127.008 565.763C126.95 565.795 126.886 565.814 126.82 565.82H126.77Z" fill="#A6A6A6"/>
<path d="M117.69 627.05H145.29C147.852 627.061 150.324 626.106 152.213 624.375C154.102 622.643 155.269 620.264 155.48 617.71L159.82 566.71C159.931 565.376 159.778 564.034 159.37 562.76C158.963 561.485 158.308 560.303 157.443 559.282C156.579 558.26 155.521 557.419 154.332 556.806C153.142 556.193 151.844 555.821 150.51 555.71H113.35C112.014 555.711 110.692 555.976 109.459 556.488C108.225 557 107.105 557.751 106.162 558.696C105.218 559.641 104.47 560.763 103.96 561.997C103.45 563.232 103.189 564.554 103.19 565.89V566.71L107.53 617.71C107.736 620.26 108.897 622.638 110.781 624.37C112.664 626.101 115.132 627.058 117.69 627.05Z" fill="#EBEBEB"/>
<path d="M81.3977 332.273H82.4545V338.511C82.4545 339.068 82.3523 339.541 82.1477 339.93C81.9432 340.32 81.6548 340.615 81.2827 340.817C80.9105 341.018 80.4716 341.119 79.9659 341.119C79.4886 341.119 79.0639 341.033 78.6918 340.859C78.3196 340.683 78.027 340.433 77.8139 340.109C77.6009 339.786 77.4943 339.401 77.4943 338.955H78.5341C78.5341 339.202 78.5952 339.418 78.7173 339.602C78.8423 339.784 79.0128 339.926 79.2287 340.028C79.4446 340.131 79.6903 340.182 79.9659 340.182C80.2699 340.182 80.5284 340.118 80.7415 339.99C80.9545 339.862 81.1165 339.675 81.2273 339.428C81.3409 339.178 81.3977 338.872 81.3977 338.511V332.273ZM89.3452 334.455C89.294 334.023 89.0866 333.688 88.723 333.449C88.3594 333.21 87.9134 333.091 87.3849 333.091C86.9986 333.091 86.6605 333.153 86.3707 333.278C86.0838 333.403 85.8594 333.575 85.6974 333.794C85.5384 334.013 85.4588 334.261 85.4588 334.54C85.4588 334.773 85.5142 334.973 85.625 335.141C85.7386 335.305 85.8835 335.443 86.0597 335.554C86.2358 335.662 86.4205 335.751 86.6136 335.822C86.8068 335.891 86.9844 335.946 87.1463 335.989L88.0327 336.227C88.2599 336.287 88.5128 336.369 88.7912 336.474C89.0724 336.58 89.3409 336.723 89.5966 336.905C89.8551 337.084 90.0682 337.314 90.2358 337.595C90.4034 337.876 90.4872 338.222 90.4872 338.631C90.4872 339.102 90.3636 339.528 90.1165 339.909C89.8722 340.29 89.5142 340.592 89.0426 340.817C88.5739 341.041 88.0043 341.153 87.3338 341.153C86.7088 341.153 86.1676 341.053 85.7102 340.851C85.2557 340.649 84.8977 340.368 84.6364 340.007C84.3778 339.646 84.2315 339.227 84.1974 338.75H85.2884C85.3168 339.08 85.4276 339.352 85.6207 339.568C85.8168 339.781 86.0639 339.94 86.3622 340.045C86.6634 340.148 86.9872 340.199 87.3338 340.199C87.7372 340.199 88.0994 340.134 88.4205 340.003C88.7415 339.869 88.9957 339.685 89.1832 339.449C89.3707 339.21 89.4645 338.932 89.4645 338.614C89.4645 338.324 89.3835 338.088 89.2216 337.906C89.0597 337.724 88.8466 337.577 88.5824 337.463C88.3182 337.349 88.0327 337.25 87.7259 337.165L86.652 336.858C85.9702 336.662 85.4304 336.382 85.0327 336.018C84.6349 335.655 84.4361 335.179 84.4361 334.591C84.4361 334.102 84.5682 333.676 84.8324 333.312C85.0994 332.946 85.4574 332.662 85.9062 332.46C86.358 332.256 86.8622 332.153 87.419 332.153C87.9815 332.153 88.4815 332.254 88.919 332.456C89.3565 332.655 89.7031 332.928 89.9588 333.274C90.2173 333.621 90.3537 334.014 90.3679 334.455H89.3452Z" fill="white"/>
<path d="M207.057 307V298.273H208.114V302.159H212.767V298.273H213.824V307H212.767V303.097H208.114V307H207.057ZM215.462 299.21V298.273H222.008V299.21H219.263V307H218.207V299.21H215.462ZM223.639 298.273H224.9L227.866 305.517H227.968L230.934 298.273H232.196V307H231.207V300.369H231.122L228.395 307H227.44L224.713 300.369H224.627V307H223.639V298.273ZM234.315 307V298.273H235.371V306.062H239.428V307H234.315Z" fill="white"/>
</svg>
