<svg width="595" height="81" viewBox="0 0 595 81" fill="none" xmlns="http://www.w3.org/2000/svg">
<path d="M18.847 80.0196C11.4721 80.0196 4.73451 74.5567 4.73451 65.543V49.8827C4.73451 46.5139 3.18669 43.7825 0 43.7825V37.227C3.18669 37.227 4.73451 34.4955 4.73451 31.1268V15.5575C4.73451 6.54375 11.4721 0.989807 18.847 0.989807H24.3099V8.7289H18.847C15.6603 8.7289 13.1109 11.3693 13.1109 15.4665V32.3104C13.1109 36.1344 11.9273 39.23 8.92272 40.5047C11.9273 41.7794 13.1109 44.875 13.1109 48.6991V65.4519C13.1109 69.5491 15.6603 72.2805 18.847 72.2805H24.3099V80.0196H18.847Z" fill="#2FF093"/>
<path d="M492.252 59.1238C492.252 54.5714 496.076 50.7019 500.674 50.7019C505.272 50.7019 509.096 54.5259 509.096 59.1238C509.096 63.6762 505.272 67.5458 500.674 67.5458C496.076 67.5458 492.252 63.6762 492.252 59.1238Z" fill="white"/>
<path d="M518.929 59.1238C518.929 54.5714 522.753 50.7019 527.351 50.7019C531.949 50.7019 535.773 54.5259 535.773 59.1238C535.773 63.6762 531.949 67.5458 527.351 67.5458C522.753 67.5458 518.929 63.6762 518.929 59.1238Z" fill="white"/>
<path d="M545.606 59.1238C545.606 54.5714 549.43 50.7019 554.028 50.7019C558.626 50.7019 562.45 54.5259 562.45 59.1238C562.45 63.6762 558.626 67.5458 554.028 67.5458C549.43 67.5458 545.606 63.6762 545.606 59.1238Z" fill="white"/>
<path d="M570.599 72.2805H576.153C579.249 72.2805 581.889 69.5491 581.889 65.4519V48.6991C581.889 44.875 583.073 41.7794 586.077 40.5047C583.073 39.23 581.889 36.1344 581.889 32.3104V15.4665C581.889 11.3693 579.249 8.7289 576.153 8.7289H570.599V0.989807H576.153C583.437 0.989807 590.265 6.54375 590.265 15.5575V31.1268C590.265 34.4955 591.813 37.227 595 37.227V43.7825C591.813 43.7825 590.265 46.5139 590.265 49.8827V65.543C590.265 74.5567 583.437 80.0196 576.153 80.0196H570.599V72.2805Z" fill="#2FF093"/>
<path d="M95.8739 59.9888C95.8739 64.8599 93.6887 67.2727 89.2729 67.2727C86.0862 67.2727 83.0816 66.089 80.2136 63.7218L48.8475 37.4999V66.9085H32.1857V20.2463C32.1857 18.2432 32.823 16.6499 34.0977 15.3297C35.3724 14.055 37.1478 13.4176 39.4695 13.4176C42.4741 13.4176 45.2966 14.4647 47.846 16.6043L79.2121 42.8262V13.3266H95.8739V59.9888Z" fill="white"/>
<path d="M121.003 66.9085H104.432V13.3266H121.003V66.9085Z" fill="white"/>
<path d="M269.321 66.9085H252.75V46.9234H220.883V66.9085H204.221V13.3266H220.883V33.0385H252.75V13.3266H269.321V66.9085Z" fill="white"/>
<path d="M299.093 66.9085L309.109 53.0237H331.461L317.622 33.767L293.448 66.9085H272.871L307.196 19.2903C308.289 17.697 309.791 16.3312 311.749 15.1476C313.889 13.8729 315.937 13.2356 317.895 13.2356C319.943 13.2356 321.992 13.8729 324.04 15.1476C325.861 16.2857 327.364 17.6514 328.502 19.2903L362.008 66.9085H299.093Z" fill="white"/>
<path d="M410.127 13.3266L399.337 27.2114H383.313V66.9085H366.651V27.2114H344.572L355.27 13.3266H410.127Z" fill="white"/>
<path d="M479.551 66.9085H462.98V46.9234H431.113V66.9085H414.451V13.3266H431.113V33.0385H462.98V13.3266H479.551V66.9085Z" fill="white"/>
</svg>
