<svg width="595" height="116" viewBox="0 0 595 116" fill="none" xmlns="http://www.w3.org/2000/svg">
<path d="M18.847 102.02C11.4721 102.02 4.73451 96.5567 4.73451 87.543V71.8827C4.73451 68.5139 3.18669 65.7825 0 65.7825V59.227C3.18669 59.227 4.73451 56.4955 4.73451 53.1268V37.5575C4.73451 28.5437 11.4721 22.9898 18.847 22.9898H24.3099V30.7289H18.847C15.6603 30.7289 13.1109 33.3693 13.1109 37.4665V54.3104C13.1109 58.1344 11.9273 61.23 8.92272 62.5047C11.9273 63.7794 13.1109 66.875 13.1109 70.6991V87.4519C13.1109 91.5491 15.6603 94.2805 18.847 94.2805H24.3099V102.02H18.847Z" fill="#2FF093"/>
<path d="M492.252 81.1239C492.252 76.5715 496.076 72.7019 500.674 72.7019C505.272 72.7019 509.096 76.5259 509.096 81.1239C509.096 85.6763 505.272 89.5458 500.674 89.5458C496.076 89.5458 492.252 85.6763 492.252 81.1239Z" fill="black"/>
<path d="M518.929 81.1239C518.929 76.5715 522.753 72.7019 527.351 72.7019C531.949 72.7019 535.773 76.5259 535.773 81.1239C535.773 85.6763 531.949 89.5458 527.351 89.5458C522.753 89.5458 518.929 85.6763 518.929 81.1239Z" fill="black"/>
<path d="M545.606 81.1239C545.606 76.5715 549.43 72.7019 554.028 72.7019C558.626 72.7019 562.45 76.5259 562.45 81.1239C562.45 85.6763 558.626 89.5458 554.028 89.5458C549.43 89.5458 545.606 85.6763 545.606 81.1239Z" fill="black"/>
<path d="M570.599 94.2805H576.153C579.249 94.2805 581.889 91.5491 581.889 87.4519V70.6991C581.889 66.875 583.073 63.7794 586.077 62.5047C583.073 61.23 581.889 58.1344 581.889 54.3104V37.4665C581.889 33.3693 579.249 30.7289 576.153 30.7289H570.599V22.9898H576.153C583.437 22.9898 590.265 28.5437 590.265 37.5575V53.1268C590.265 56.4955 591.813 59.227 595 59.227V65.7825C591.813 65.7825 590.265 68.5139 590.265 71.8827V87.543C590.265 96.5567 583.437 102.02 576.153 102.02H570.599V94.2805Z" fill="#2FF093"/>
<path d="M95.8739 81.9888C95.8739 86.8599 93.6887 89.2727 89.2729 89.2727C86.0862 89.2727 83.0816 88.089 80.2136 85.7218L48.8475 59.4999V88.9085H32.1857V42.2463C32.1857 40.2432 32.823 38.6499 34.0977 37.3297C35.3724 36.055 37.1478 35.4176 39.4695 35.4176C42.4741 35.4176 45.2966 36.4647 47.846 38.6043L79.2121 64.8262V35.3266H95.8739V81.9888Z" fill="black"/>
<path d="M121.003 88.9085H104.432V35.3266H121.003V88.9085Z" fill="black"/>
<path d="M269.321 88.9085H252.75V68.9234H220.883V88.9085H204.221V35.3266H220.883V55.0385H252.75V35.3266H269.321V88.9085Z" fill="black"/>
<path d="M299.093 88.9085L309.109 75.0237H331.461L317.622 55.767L293.448 88.9085H272.871L307.197 41.2903C308.289 39.697 309.791 38.3312 311.749 37.1476C313.889 35.8729 315.937 35.2356 317.895 35.2356C319.943 35.2356 321.992 35.8729 324.04 37.1476C325.861 38.2857 327.364 39.6514 328.502 41.2903L362.008 88.9085H299.093Z" fill="black"/>
<path d="M410.127 35.3266L399.337 49.2114H383.313V88.9085H366.651V49.2114H344.572L355.27 35.3266H410.127Z" fill="black"/>
<path d="M479.551 88.9085H462.98V68.9234H431.113V88.9085H414.451V35.3266H431.113V55.0385H462.98V35.3266H479.551V88.9085Z" fill="black"/>
<path d="M187.377 50.6228H149.501C147.453 50.6228 146.451 51.3512 146.451 52.7624C146.451 54.2192 147.453 54.9021 149.501 54.9021H176.77C183.28 54.9021 188.697 56.4954 193.022 59.6366C197.529 63.0054 199.805 67.3757 199.805 72.702C199.805 77.9828 197.529 82.3076 192.977 85.5398C188.697 88.6809 143.583 89.2272 137.028 89.2272L99.4702 115.176L138.393 76.3894H176.725C178.455 76.3894 180.002 76.0708 181.414 75.479C183.189 74.7506 184.1 73.7035 184.1 72.4288C184.1 71.1086 183.189 70.0616 181.414 69.3787C180.093 68.878 178.5 68.6503 176.725 68.6503H149.456C143.401 68.6503 138.348 67.2846 134.296 64.5076C129.926 61.5486 127.741 57.588 127.741 52.6714C127.741 47.7093 129.926 43.7487 134.296 40.7896C138.348 38.0126 178.045 37.785 184.1 37.785L226.482 0L187.377 50.6228Z" fill="#2FF093"/>
</svg>
